<svg width="87" height="127" viewBox="0 0 87 127" fill="none" xmlns="http://www.w3.org/2000/svg">
<g clip-path="url(#clip0_1_20)">
<path d="M72.05 48.28L34.9 0L14.94 29.45L52.09 77.74L72.05 48.28Z" fill="url(#paint0_linear_1_20)"/>
<path d="M29.67 77.74H0.220001V96.57H29.67V77.74Z" fill="url(#paint1_linear_1_20)"/>
<path d="M0.220001 77.74H52.09L72.05 48.28H20.18L0.220001 77.74Z" fill="url(#paint2_linear_1_20)"/>
<path d="M14.94 29.45H86.78V0H34.9L14.94 29.45Z" fill="url(#paint3_linear_1_20)"/>
<path d="M53.76 118.8V125.41H61.37V126.18H52.97V111.04H61.37V111.81H53.76V118.03H60.69V118.8H53.76Z" fill="white" stroke="white" stroke-width="0.4331" stroke-miterlimit="10"/>
<path d="M83.42 111.04V111.81H77.99V126.18H77.18V111.81H71.75V111.04H83.42Z" fill="white" stroke="white" stroke-width="0.4331" stroke-miterlimit="10"/>
<path d="M38.45 117.88C35.41 116.38 34.62 115.68 34.62 114.05C34.62 112.55 35.95 111.36 37.85 111.36C39.35 111.36 40.5 111.83 41.7 112.64H41.74V111.71C40.62 111.03 39.39 110.61 37.89 110.61C35.45 110.61 33.76 112.06 33.76 114.1C33.76 116 34.74 117.09 37.67 118.46C40.9 119.98 41.73 120.98 41.73 122.65C41.73 124.36 40.25 125.86 37.97 125.86C36.37 125.86 34.89 125.13 33.67 124.15V125.15C34.82 125.98 36.33 126.61 37.95 126.61C40.71 126.61 42.59 124.88 42.59 122.59C42.6 120.64 41.68 119.46 38.45 117.88Z" fill="white" stroke="white" stroke-width="0.4331" stroke-miterlimit="10"/>
<path d="M1.01 125.41V122.91V118.8H7.57V118.03H1.01V111.81H8.07V111.04H0.220001V126.18H1.01V125.41Z" fill="white" stroke="white" stroke-width="0.4331" stroke-miterlimit="10"/>
<path d="M20.96 120.28L18.61 116.94H23.32L20.96 120.28Z" fill="url(#paint4_linear_1_20)"/>
</g>
<defs>
<linearGradient id="paint0_linear_1_20" x1="51.6774" y1="73.4128" x2="31.7757" y2="-10.6425" gradientUnits="userSpaceOnUse">
<stop stop-color="white"/>
<stop offset="1" stop-color="white" stop-opacity="0"/>
</linearGradient>
<linearGradient id="paint1_linear_1_20" x1="-3.6768" y1="98.9818" x2="67.6681" y2="53.6481" gradientUnits="userSpaceOnUse">
<stop stop-color="white"/>
<stop offset="1" stop-color="white" stop-opacity="0"/>
</linearGradient>
<linearGradient id="paint2_linear_1_20" x1="57.665" y1="78.4632" x2="-56.8282" y2="-3.71901" gradientUnits="userSpaceOnUse">
<stop stop-color="white"/>
<stop offset="1" stop-color="white" stop-opacity="0"/>
</linearGradient>
<linearGradient id="paint3_linear_1_20" x1="11.8239" y1="34.2405" x2="110.63" y2="-5.09459" gradientUnits="userSpaceOnUse">
<stop stop-color="white"/>
<stop offset="1" stop-color="white" stop-opacity="0"/>
</linearGradient>
<linearGradient id="paint4_linear_1_20" x1="19.4975" y1="119.867" x2="22.7512" y2="113.36" gradientUnits="userSpaceOnUse">
<stop stop-color="white"/>
<stop offset="1" stop-color="white" stop-opacity="0"/>
</linearGradient>
<clipPath id="clip0_1_20">
<rect width="86.78" height="126.82" fill="white"/>
</clipPath>
</defs>
</svg>
